<?xml version="1.0" standalone="no"?>
<!DOCTYPE svg PUBLIC "-//W3C//DTD SVG 20010904//EN"
 "http://www.w3.org/TR/2001/REC-SVG-20010904/DTD/svg10.dtd">
<svg version="1.0" xmlns="http://www.w3.org/2000/svg"
 width="418.000000pt" height="169.000000pt" viewBox="0 0 418.000000 169.000000"
 preserveAspectRatio="xMidYMid meet">
<metadata>
Created by potrace 1.13, written by Peter Selinger 2001-2015
</metadata>
<g transform="translate(0.000000,169.000000) scale(0.100000,-0.100000)"
fill="#000000" stroke="none">
<path d="M3124 1605 c-109 -23 -233 -84 -292 -144 -38 -39 -86 -58 -131 -53
-35 3 -47 1 -58 -14 -12 -16 -15 -17 -23 -4 -8 13 -25 7 -106 -34 -93 -47 -98
-48 -166 -44 -60 5 -84 13 -162 54 l-91 49 -105 0 c-104 0 -106 -1 -190 -42
-47 -24 -93 -43 -103 -43 -9 0 -17 -3 -17 -7 0 -5 -29 -8 -65 -8 -36 -1 -65 2
-65 6 0 3 -43 28 -96 55 -89 44 -102 48 -184 52 l-89 4 -103 -48 c-95 -45
-109 -49 -178 -49 -61 0 -85 5 -130 27 -40 20 -56 24 -62 15 -5 -8 -8 -5 -8 9
0 33 -67 54 -165 50 -117 -4 -115 -4 -115 -27 0 -18 4 -20 48 -13 26 3 54 10
62 14 17 10 87 -16 185 -68 67 -35 75 -37 185 -40 l115 -3 85 42 c106 52 193
63 268 33 26 -10 52 -19 57 -19 6 0 20 -10 32 -22 32 -32 116 -52 203 -50 67
2 85 7 165 47 83 41 95 45 165 44 70 0 81 -3 164 -47 100 -53 146 -65 182 -48
15 7 23 7 19 1 -4 -6 12 -10 42 -10 47 0 162 44 177 68 4 6 27 14 51 18 25 3
45 10 45 15 0 13 52 -1 69 -18 11 -11 16 -12 22 -2 4 7 5 18 3 24 -3 7 2 15
10 18 9 4 16 2 16 -4 0 -5 18 5 40 22 23 18 39 38 36 45 -3 7 2 15 10 18 9 3
12 1 9 -4 -11 -17 11 -11 61 17 26 15 42 29 36 31 -7 2 -12 8 -12 13 0 5 10 5
23 0 15 -6 42 -3 82 10 85 27 118 31 221 31 97 -1 200 -20 272 -52 24 -11 60
-20 79 -20 23 0 33 -4 31 -13 -2 -8 11 -26 28 -40 32 -27 50 -35 39 -17 -3 6
-1 10 4 10 21 0 11 27 -19 48 -16 12 -32 22 -36 22 -3 0 -18 8 -32 18 -43 30
-151 68 -226 81 -84 15 -230 12 -312 -4z"/>
<path d="M3786 1433 c-17 -17 -3 -54 33 -86 41 -37 127 -156 123 -170 -1 -4 4
-15 13 -23 8 -9 15 -24 15 -34 0 -10 5 -22 10 -25 6 -3 10 -14 10 -24 0 -10
10 -26 23 -35 12 -9 17 -14 10 -11 -18 9 -25 -12 -12 -37 8 -14 12 -54 11
-100 -2 -43 2 -79 8 -83 14 -9 13 -21 -5 -39 -10 -10 -16 -37 -17 -78 -2 -70
8 -102 24 -74 11 19 27 112 35 198 4 49 3 57 -14 61 -17 4 -17 5 1 6 15 1 17
6 12 32 -3 17 -6 42 -6 55 0 16 -6 24 -17 24 -14 0 -15 2 -4 9 11 7 12 17 3
53 -16 61 -40 118 -52 118 -5 0 -7 6 -4 13 12 31 -179 270 -200 250z"/>
<path d="M437 1180 c-55 -14 -127 -59 -127 -79 0 -31 12 -31 69 1 48 28 69 33
144 38 48 3 88 3 90 0 1 -3 45 -26 97 -52 84 -41 104 -47 173 -50 42 -2 77 0
77 4 0 5 15 8 33 8 17 0 68 18 112 40 44 22 88 40 98 40 13 0 17 6 15 23 -2
18 -8 21 -33 19 -36 -4 -160 -59 -176 -78 -6 -8 -27 -14 -45 -14 -19 0 -34 -4
-34 -10 0 -5 5 -10 12 -10 6 0 8 -3 4 -7 -4 -5 -13 -1 -19 8 -7 8 -28 16 -47
17 -19 2 -53 4 -75 5 -27 1 -42 8 -47 19 -4 10 -35 32 -70 49 -51 26 -77 33
-138 35 -41 2 -92 -1 -113 -6z"/>
<path d="M1232 1160 c2 -20 10 -24 48 -27 26 -2 89 -25 150 -53 78 -36 122
-50 173 -55 37 -4 67 -3 67 1 0 5 15 9 33 10 35 0 117 33 117 46 0 4 -5 8 -11
8 -5 0 -7 5 -4 10 9 14 -11 12 -43 -4 -15 -7 -51 -19 -80 -26 -68 -16 -118 -4
-237 56 -68 34 -105 47 -153 51 -62 6 -64 5 -60 -17z"/>
<path d="M2580 1132 c-14 -2 -34 -12 -45 -21 -11 -10 -48 -26 -82 -36 -74 -21
-196 -17 -235 9 -14 9 -27 13 -30 10 -4 -3 -16 0 -28 6 -15 8 -26 8 -32 2 -10
-10 5 -21 87 -61 32 -16 61 -19 148 -19 84 0 107 4 107 14 0 9 11 14 28 14 15
0 36 7 46 15 11 8 28 13 38 9 13 -4 19 2 24 20 8 34 3 42 -26 38z"/>
<path d="M2526 958 c-10 -40 -7 -67 12 -77 10 -6 12 -11 4 -11 -7 0 -22 -8
-33 -19 -22 -20 -119 -51 -160 -51 -13 0 -30 -9 -37 -20 -12 -19 -10 -20 37
-20 28 0 53 5 56 10 5 7 11 8 19 1 8 -7 24 -4 51 8 27 12 49 15 68 10 19 -5
27 -4 26 4 -1 7 -1 17 0 23 2 16 50 36 71 29 10 -3 20 0 23 9 6 16 47 10 47
-7 0 -6 3 -8 6 -4 10 10 12 117 3 111 -5 -3 -9 -16 -9 -30 0 -17 -5 -24 -20
-24 -11 0 -20 -4 -20 -9 0 -14 -52 -24 -60 -11 -4 6 -15 10 -25 8 -15 -2 -18
4 -19 42 -1 33 -5 45 -17 48 -10 2 -19 -6 -23 -20z"/>
<path d="M476 931 c-26 -4 -42 -13 -47 -26 -6 -17 -8 -17 -8 -2 -1 9 -4 17 -7
17 -17 0 -84 -45 -84 -57 0 -7 -6 -10 -14 -7 -8 3 -27 -1 -43 -9 -16 -9 -50
-15 -75 -15 -57 0 -74 -8 -57 -28 22 -26 179 -6 179 23 0 7 6 10 13 7 8 -3 20
2 27 11 7 8 21 15 31 15 11 0 27 8 37 18 13 13 30 16 70 14 51 -4 54 -3 50 19
-3 26 -14 29 -72 20z"/>
<path d="M560 916 c0 -15 74 -53 121 -63 16 -3 27 -8 24 -11 -5 -5 22 -23 65
-42 14 -6 44 -10 67 -8 22 2 39 -1 36 -5 -3 -5 28 -5 68 -2 51 5 88 15 117 32
24 14 42 26 40 28 -2 2 -35 -1 -73 -7 -39 -7 -100 -11 -136 -11 -59 0 -79 6
-176 51 -110 53 -153 63 -153 38z"/>
<path d="M1330 900 c0 -6 -11 -8 -25 -4 -15 4 -25 2 -25 -4 0 -6 15 -13 33
-17 17 -4 70 -26 117 -50 98 -49 140 -62 140 -43 0 10 2 10 9 -1 6 -10 27 -12
78 -9 57 3 84 11 158 48 83 41 96 45 165 45 64 0 82 -4 125 -29 31 -17 63 -28
85 -27 26 0 31 -2 20 -9 -13 -9 -13 -11 0 -20 20 -13 82 -8 87 7 3 7 -8 15
-24 19 -15 4 -50 21 -78 37 -27 16 -54 31 -60 32 -5 1 -26 9 -45 17 -44 19
-172 23 -202 6 -13 -7 -27 -11 -32 -10 -13 4 -96 -37 -96 -46 0 -15 -135 -34
-185 -26 -26 3 -67 18 -91 31 -25 14 -55 23 -71 21 -18 -2 -28 2 -28 10 0 14
-23 32 -42 32 -7 0 -13 -5 -13 -10z"/>
<path d="M2534 693 c3 -16 8 -38 12 -50 5 -19 -3 -26 -67 -58 -66 -34 -79 -37
-148 -35 -42 1 -86 2 -98 2 -13 0 -23 4 -23 9 0 5 -6 9 -14 9 -7 0 -16 8 -18
18 -3 10 -31 27 -67 41 -51 20 -78 24 -144 23 -94 -3 -130 -13 -207 -56 -62
-35 -64 -35 -145 -36 -88 0 -107 3 -127 22 -10 10 -29 20 -43 24 -14 3 -25 10
-25 15 0 5 -11 9 -24 9 -14 0 -27 4 -30 9 -7 10 -76 20 -81 11 -5 -9 181 -105
244 -125 85 -28 159 -17 281 40 97 45 104 47 173 43 59 -4 88 -12 160 -46 48
-23 94 -42 103 -42 8 0 24 -5 34 -10 13 -7 47 -7 99 -1 62 7 100 18 165 50 60
29 97 41 128 41 41 0 68 13 68 32 0 4 -11 8 -25 8 -14 0 -25 5 -25 10 0 6 -9
10 -20 10 -11 0 -20 -4 -20 -10 0 -5 -16 -10 -35 -10 -34 0 -35 1 -35 40 0 37
-2 40 -26 40 -24 0 -26 -3 -20 -27z"/>
<path d="M467 659 c5 -19 62 -32 79 -18 7 6 30 0 62 -16 27 -14 55 -25 61 -25
6 0 11 -4 11 -8 0 -9 48 -36 65 -37 6 0 15 -5 22 -11 16 -15 123 -27 170 -19
59 10 105 26 141 48 26 15 31 22 20 29 -8 6 -2 7 18 3 21 -4 35 -1 44 10 7 8
21 15 31 15 25 0 24 16 -1 23 -12 3 -24 -1 -30 -11 -8 -15 -11 -15 -20 -2 -8
13 -17 11 -62 -12 -99 -50 -132 -60 -198 -60 -56 1 -76 6 -145 42 -120 62
-279 91 -268 49z"/>
<path d="M3951 528 c-11 -23 -18 -45 -15 -50 3 -4 -2 -8 -12 -8 -13 0 -15 -6
-10 -30 3 -17 1 -30 -4 -30 -6 0 -10 5 -10 10 0 17 -18 11 -24 -7 -19 -58
-233 -225 -309 -240 -20 -4 -25 -9 -17 -18 8 -9 4 -11 -17 -9 -16 2 -41 -1
-58 -6 -106 -33 -289 -27 -405 14 -25 9 -53 16 -62 16 -10 0 -27 9 -38 20 -13
13 -29 18 -47 16 -16 -2 -22 -1 -15 1 28 10 2 33 -39 33 -12 0 -16 5 -13 15 4
9 0 15 -9 15 -21 0 -31 -17 -15 -23 10 -4 9 -6 -1 -6 -18 -1 6 -31 25 -31 8 0
14 -4 14 -8 0 -11 56 -43 63 -36 3 3 15 -4 26 -15 12 -12 30 -21 40 -21 11 0
22 -4 25 -9 6 -9 86 -31 136 -38 116 -15 321 -5 328 18 2 5 8 6 14 3 17 -11
187 68 247 115 36 28 124 113 157 152 37 43 93 149 88 164 -4 8 -1 15 5 15 6
0 11 5 11 10 0 6 -9 10 -19 10 -12 0 -26 -15 -40 -42z"/>
<path d="M2610 551 c0 -6 -3 -10 -7 -8 -8 2 -13 -6 -13 -21 0 -16 37 -52 45
-44 5 4 5 1 1 -6 -4 -7 -3 -18 2 -25 5 -7 12 -22 16 -33 6 -19 1 -22 -34 -28
-23 -3 -39 -10 -36 -15 3 -5 -10 -12 -29 -15 -19 -4 -59 -18 -90 -32 -107 -49
-210 -41 -315 26 -57 36 -93 44 -205 43 -84 0 -96 -3 -155 -35 -125 -67 -212
-73 -313 -22 -27 14 -58 23 -69 21 -15 -4 -17 -2 -9 7 17 20 -77 46 -165 46
-75 0 -158 -23 -193 -53 -9 -8 -42 -22 -74 -32 -84 -26 -151 -16 -251 36 -48
25 -82 37 -84 31 -2 -7 -12 -4 -25 8 -17 17 -35 20 -103 20 -52 0 -87 -5 -96
-12 -7 -7 -22 -14 -33 -16 -11 -2 -32 -12 -47 -23 -15 -10 -32 -19 -38 -19 -6
0 -21 -5 -33 -12 -12 -6 -42 -14 -67 -16 -52 -4 -55 -6 -46 -27 5 -13 16 -15
68 -9 35 3 68 12 73 18 6 7 16 11 23 8 7 -2 23 5 35 16 24 23 148 59 187 55
69 -7 160 -44 160 -65 0 -4 6 -8 13 -8 8 0 29 -8 48 -17 26 -14 58 -18 134
-18 98 0 102 1 194 45 85 40 102 45 165 45 63 0 80 -5 151 -41 44 -23 96 -46
115 -53 49 -15 158 -17 172 -3 7 7 25 12 41 12 34 0 87 29 87 48 0 7 8 12 18
11 9 -2 42 3 72 9 88 18 169 21 163 5 -3 -8 2 -13 15 -13 12 0 32 -11 45 -24
77 -77 308 -90 387 -22 8 7 27 16 43 20 15 4 36 15 47 26 37 37 78 27 141 -36
55 -55 58 -56 75 -39 17 17 17 19 -14 46 -18 16 -39 29 -47 29 -8 0 -12 6 -9
14 3 7 -2 16 -10 19 -9 4 -16 13 -16 22 0 9 -8 14 -22 12 -19 -2 -23 3 -23 28
-1 17 -11 45 -23 62 -12 16 -19 32 -16 35 2 3 -2 11 -11 18 -10 8 -15 9 -15 1z"/>
</g>
</svg>
