<!DOCTYPE svg PUBLIC "-//W3C//DTD SVG 20010904//EN" "http://www.w3.org/TR/2001/REC-SVG-20010904/DTD/svg10.dtd">
<svg version="1.0" xmlns="http://www.w3.org/2000/svg" width="3264px" height="1057px" viewBox="0 0 32640 10570" preserveAspectRatio="xMidYMid meet"><g fill="#fff" stroke="none">
 <path d="M24774 9856 c-3 -8 -4 -27 -2 -43 3 -26 6 -28 48 -28 l45 0 0 40 c0 40 0 40 -43 43 -30 2 -44 -1 -48 -12z"/>
 <path d="M25157 9834 c-26 -14 -45 -29 -42 -34 4 -6 28 1 56 15 27 14 47 30 44 35 -7 12 -1 14 -58 -16z"/>
 <path d="M29945 9601 c-3 -6 3 -15 14 -21 12 -6 22 -6 26 -1 3 6 -3 15 -14 21 -12 6 -22 6 -26 1z"/>
 <path d="M27925 9418 c-3 -7 -6 -29 -7 -48 -3 -29 0 -35 17 -35 17 0 20 7 20 44 0 43 -19 68 -30 39z"/>
 <path d="M30436 9272 c-3 -6 14 -26 39 -47 49 -39 60 -35 53 22 -3 25 -7 28 -45 31 -22 2 -44 -1 -47 -6z"/>
 <path d="M28646 8958 c-9 -12 -16 -28 -16 -35 0 -7 -17 -13 -42 -15 -43 -3 -43 -3 -43 -43 l0 -40 50 0 c49 0 50 1 53 32 3 29 7 32 40 35 36 3 37 4 37 43 0 38 -2 40 -32 43 -23 2 -35 -3 -47 -20z"/>
 <path d="M28547 8384 c-12 -13 -8 -51 8 -64 9 -7 32 -13 53 -14 37 -1 37 -1 37 39 l0 40 -45 3 c-25 2 -49 0 -53 -4z"/>
 <path d="M22544 7416 c-3 -8 -4 -27 -2 -43 3 -27 6 -28 53 -28 l50 0 0 40 0 40 -48 3 c-34 2 -49 -1 -53 -12z"/>
 <path d="M22454 7196 c-3 -8 -4 -27 -2 -43 3 -27 6 -28 53 -28 l50 0 0 40 0 40 -48 3 c-34 2 -49 -1 -53 -12z"/>
 <path d="M27576 6962 c-3 -6 1 -15 8 -21 8 -7 17 -8 20 -3 3 6 -1 15 -8 21 -8 7 -17 8 -20 3z"/>
 <path d="M15825 6901 c-3 -6 3 -15 14 -21 12 -6 22 -6 26 -1 3 6 -3 15 -14 21 -12 6 -22 6 -26 1z"/>
 <path d="M14574 6796 c-10 -26 4 -46 30 -46 32 0 40 14 18 32 -31 27 -42 30 -48 14z"/>
 <path d="M12355 6771 c-7 -12 12 -24 25 -16 11 7 4 25 -10 25 -5 0 -11 -4 -15 -9z"/>
 <path d="M14654 6736 c-3 -8 -4 -25 -2 -38 2 -18 10 -24 37 -26 51 -5 54 9 10 46 -31 26 -40 30 -45 18z"/>
 <path d="M12344 6676 c-11 -27 3 -43 42 -49 44 -7 57 1 52 34 -2 20 -9 24 -46 27 -31 2 -44 -1 -48 -12z"/>
 <path d="M24257 6464 c-10 -10 -9 -72 2 -78 13 -9 32 19 34 50 2 27 -20 44 -36 28z"/>
 <path d="M13804 6265 c-9 -22 4 -35 36 -35 41 0 46 16 11 35 -37 19 -40 19 -47 0z"/>
 <path d="M30476 6241 c-10 -15 22 -83 36 -79 8 3 13 21 13 44 0 32 -4 40 -22 42 -11 2 -24 -1 -27 -7z"/>
 <path d="M11914 5786 c-3 -8 -4 -27 -2 -43 3 -27 6 -28 53 -28 49 0 50 1 53 33 4 35 1 36 -61 47 -28 4 -39 2 -43 -9z"/>
 <path d="M11655 4770 c-3 -5 0 -13 8 -16 23 -8 92 0 92 11 0 14 -92 19 -100 5z"/>
 <path d="M16286 4661 c-4 -5 -2 -12 4 -16 5 -3 10 -3 10 1 0 3 7 1 15 -6 8 -7 15 -9 15 -5 0 4 6 2 14 -4 10 -8 16 -9 21 -1 3 5 4 11 1 11 -16 4 -26 7 -31 9 -3 1 -8 3 -12 4 -5 1 -13 5 -20 9 -6 4 -14 3 -17 -2z"/>
 <path d="M13375 4411 c-3 -6 3 -15 14 -21 12 -6 22 -6 26 -1 3 6 -3 15 -14 21 -12 6 -22 6 -26 1z"/>
 <path d="M8700 4301 c-32 -12 -45 -22 -45 -36 0 -17 7 -20 50 -20 48 0 50 1 53 29 5 41 -7 46 -58 27z"/>
 <path d="M21434 3285 c-11 -27 6 -36 37 -20 16 9 27 20 24 25 -9 15 -55 12 -61 -5z"/>
 <path d="M15434 3056 c-3 -8 -4 -27 -2 -43 3 -28 3 -28 82 -31 44 -2 83 1 89 7 11 11 -110 81 -142 81 -12 0 -24 -6 -27 -14z"/>
 <path d="M15685 2961 c-3 -6 3 -15 14 -21 12 -6 22 -6 26 -1 3 6 -3 15 -14 21 -12 6 -22 6 -26 1z"/>
 <path d="M29484 2766 c-3 -8 -4 -27 -2 -43 3 -27 6 -28 53 -28 l50 0 0 40 0 40 -48 3 c-34 2 -49 -1 -53 -12z"/>
 <path d="M19211 2616 c-7 -8 -11 -27 -9 -43 3 -26 6 -28 48 -28 l45 0 0 40 c0 39 -1 40 -36 43 -23 2 -40 -2 -48 -12z"/>
 <path d="M25635 2501 c-3 -6 3 -15 14 -21 12 -6 22 -6 26 -1 3 6 -3 15 -14 21 -12 6 -22 6 -26 1z"/>
 <path d="M14654 2399 c-10 -16 61 -81 84 -77 13 2 17 14 17 43 l0 40 -47 3 c-28 2 -49 -2 -54 -9z"/>
 <path d="M27997 1443 c-4 -6 0 -18 7 -28 8 -11 16 -14 19 -8 4 6 0 18 -7 28 -8 11 -16 14 -19 8z"/>
 <path d="M24866 1291 c-4 -6 8 -27 27 -47 43 -48 70 -42 65 13 -3 37 -4 38 -45 41 -22 2 -44 -2 -47 -7z"/>
 <path d="M24434 1165 c-8 -19 3 -35 25 -35 27 0 33 12 14 32 -20 22 -32 23 -39 3z"/>
 <path d="M27777 924 c-11 -11 -8 -72 3 -79 12 -7 20 10 23 50 2 27 -12 43 -26 29z"/>
 <path d="M25155 480 c-9 -14 45 -34 58 -21 5 5 6 14 3 20 -9 14 -53 14 -61 1z"/>
 <path d="M25374 476 c-3 -8 -4 -27 -2 -43 3 -26 6 -28 48 -28 l45 0 0 40 c0 40 0 40 -43 43 -30 2 -44 -1 -48 -12z"/>
 <path d="M25634 407 c-3 -9 -4 -30 -2 -49 3 -32 4 -33 48 -33 l45 0 0 45 0 45 -43 3 c-30 2 -44 -1 -48 -11z"/>
 <path d="M25335 401 c-3 -6 3 -15 14 -21 12 -6 22 -6 26 -1 3 6 -3 15 -14 21 -12 6 -22 6 -26 1z"/>
 </g>

<g fill="#fff" stroke="none">
 <path d="M27497 10014 c-4 -4 -7 -22 -7 -40 0 -28 -4 -33 -27 -36 -25 -3 -28 -7 -28 -43 0 -39 1 -40 35 -40 l35 0 9 73 c8 69 1 104 -17 86z"/>
 <path d="M24684 9787 c-3 -9 -4 -30 -2 -49 3 -33 4 -33 53 -33 l50 0 0 45 0 45 -48 3 c-34 2 -49 -1 -53 -11z"/>
 <path d="M24854 9787 c-3 -9 -4 -30 -2 -49 3 -33 4 -33 53 -33 l50 0 0 45 0 45 -48 3 c-34 2 -49 -1 -53 -11z"/>
 <path d="M25034 9785 c-11 -27 6 -36 37 -20 16 9 27 20 24 25 -9 15 -55 12 -61 -5z"/>
 <path d="M29266 9661 c-4 -5 -2 -12 4 -16 5 -3 10 -3 10 1 0 3 6 1 14 -5 10 -8 16 -9 21 -1 3 5 4 11 1 11 -3 1 -9 2 -13 3 -5 1 -13 5 -20 9 -6 4 -14 3 -17 -2z"/>
 <path d="M24514 9637 c-3 -9 -4 -30 -2 -49 3 -33 4 -33 53 -33 l50 0 0 45 0 45 -48 3 c-34 2 -49 -1 -53 -11z"/>
 <path d="M30533 9499 c-17 -6 -23 -17 -23 -38 0 -27 -3 -30 -37 -33 -38 -3 -38 -3 -38 -48 0 -45 0 -45 37 -48 33 -3 37 -6 40 -35 3 -31 4 -32 53 -32 l50 0 0 40 c0 40 0 40 -42 43 -40 3 -43 5 -43 33 0 27 2 29 40 29 28 0 42 5 49 19 9 16 6 22 -17 37 -15 10 -31 23 -37 30 -7 8 -17 9 -32 3z"/>
 <path d="M24435 9420 c-11 -18 5 -31 26 -20 11 6 17 15 14 21 -8 12 -32 12 -40 -1z"/>
 <path d="M27914 9406 c-8 -21 3 -49 16 -41 5 3 10 15 10 25 0 25 -18 36 -26 16z"/>
 <path d="M27944 9336 c-3 -8 -4 -27 -2 -43 3 -27 6 -28 53 -28 l50 0 0 40 0 40 -48 3 c-34 2 -49 -1 -53 -12z"/>
 <path d="M30466 9242 c-3 -5 3 -17 13 -26 11 -10 22 -13 25 -8 3 5 -3 17 -13 26 -11 10 -22 13 -25 8z"/>
 <path d="M25686 9162 c-3 -6 1 -15 8 -21 8 -7 17 -8 20 -3 3 6 -1 15 -8 21 -8 7 -17 8 -20 3z"/>
 <path d="M24614 8966 c-3 -8 -4 -27 -2 -43 3 -26 7 -28 43 -28 l40 0 0 40 c0 39 -1 40 -38 43 -26 2 -39 -1 -43 -12z"/>
 <path d="M28717 8903 c-10 -9 -9 -61 1 -67 12 -7 54 52 47 64 -7 11 -38 13 -48 3z"/>
 <path d="M23606 8661 c-10 -11 -13 -22 -8 -25 5 -3 17 3 26 13 10 11 13 22 8 25 -5 3 -17 -3 -26 -13z"/>
 <path d="M9125 8585 c-32 -9 -40 -17 -40 -36 0 -22 4 -24 50 -24 l50 0 0 34 c0 40 -6 43 -60 26z"/>
 <path d="M28415 8380 c-9 -14 45 -34 58 -21 5 5 6 14 3 20 -9 14 -53 14 -61 1z"/>
 <path d="M28714 8376 c-3 -8 -4 -27 -2 -43 3 -27 6 -28 53 -28 l50 0 0 40 0 40 -48 3 c-34 2 -49 -1 -53 -12z"/>
 <path d="M28545 8330 c-7 -12 32 -33 45 -25 6 4 8 10 5 14 -7 13 -44 20 -50 11z"/>
 <path d="M22977 7873 c-11 -10 -8 -71 3 -78 10 -6 60 66 53 78 -5 9 -47 9 -56 0z"/>
 <path d="M21434 7497 c-3 -9 -4 -30 -2 -49 4 -39 34 -49 74 -23 20 13 25 23 22 48 -3 30 -6 32 -46 35 -30 2 -44 -1 -48 -11z"/>
 <path d="M31867 7493 c-4 -6 0 -18 7 -28 8 -11 16 -14 19 -8 4 6 0 18 -7 28 -8 11 -16 14 -19 8z"/>
 <path d="M5491 7046 c-7 -8 -11 -27 -9 -43 3 -27 6 -28 53 -28 l50 0 0 40 c0 40 0 40 -41 43 -27 2 -45 -2 -53 -12z"/>
 <path d="M25716 7022 c-3 -5 5 -19 18 -31 13 -13 26 -18 30 -13 3 5 -5 19 -18 31 -13 13 -26 18 -30 13z"/>
 <path d="M15944 6976 c-3 -8 -4 -29 -2 -48 3 -33 4 -33 53 -33 47 0 50 2 53 28 3 24 -2 29 -43 47 -56 24 -54 24 -61 6z"/>
 <path d="M14576 6812 c-3 -6 1 -15 8 -21 8 -7 17 -8 20 -3 3 6 -1 15 -8 21 -8 7 -17 8 -20 3z"/>
 <path d="M12375 6771 c-7 -12 12 -24 25 -16 11 7 4 25 -10 25 -5 0 -11 -4 -15 -9z"/>
 <path d="M12254 6757 c-3 -9 -4 -30 -2 -49 3 -33 4 -33 53 -33 l50 0 0 45 0 45 -48 3 c-34 2 -49 -1 -53 -11z"/>
 <path d="M14686 6722 c-3 -5 3 -17 13 -26 11 -10 22 -13 25 -8 3 5 -3 17 -13 26 -11 10 -22 13 -25 8z"/>
 <path d="M12685 6700 c-10 -17 5 -30 35 -30 28 0 48 14 33 23 -21 12 -62 16 -68 7z"/>
 <path d="M12365 6640 c-8 -12 20 -24 35 -15 6 3 8 11 5 16 -8 12 -32 12 -40 -1z"/>
 <path d="M17485 6630 c-12 -20 11 -31 56 -28 31 2 44 7 44 18 0 19 -89 27 -100 10z"/>
 <path d="M17880 6621 c-45 -6 -45 -6 -45 -46 l0 -40 45 0 c43 0 45 1 48 32 3 30 6 32 45 35 23 2 42 8 42 13 0 12 -71 15 -135 6z"/>
 <path d="M26455 6608 c-9 -22 -2 -68 10 -71 14 -3 19 63 6 76 -7 7 -12 5 -16 -5z"/>
 <path d="M12943 6534 c-9 -25 8 -46 51 -60 42 -15 50 -7 44 43 -3 25 -7 28 -46 31 -32 2 -44 -1 -49 -14z"/>
 <path d="M13114 6537 c-3 -9 -4 -30 -2 -49 3 -33 4 -33 53 -33 l50 0 0 45 0 45 -48 3 c-34 2 -49 -1 -53 -11z"/>
 <path d="M24285 6457 c-4 -8 -7 -21 -9 -29 -1 -7 -5 -19 -9 -25 -5 -7 -5 -18 -2 -23 8 -13 26 -2 23 13 -1 7 4 23 11 36 9 16 10 26 2 34 -7 7 -12 6 -16 -6z"/>
 <path d="M13805 6280 c-3 -5 12 -18 34 -30 23 -11 42 -16 46 -10 3 5 -12 18 -34 30 -23 11 -42 16 -46 10z"/>
 <path d="M30476 6221 c-10 -16 13 -66 25 -54 6 6 6 19 0 36 -11 29 -16 32 -25 18z"/>
 <path d="M11945 5791 c-7 -13 17 -24 40 -19 9 1 16 8 16 13 0 14 -48 19 -56 6z"/>
 <path d="M13515 5391 c-3 -6 3 -15 14 -21 12 -6 22 -6 26 -1 3 6 -3 15 -14 21 -12 6 -22 6 -26 1z"/>
 <path d="M31846 5001 c-10 -11 -13 -22 -8 -25 5 -3 17 3 26 13 10 11 13 22 8 25 -5 3 -17 -3 -26 -13z"/>
 <path d="M16306 4651 c-4 -5 -2 -12 4 -16 5 -3 10 -3 10 1 0 3 7 1 15 -6 8 -7 15 -9 15 -5 0 4 6 2 14 -4 10 -8 16 -9 21 -1 3 5 4 11 1 11 -16 4 -26 7 -31 9 -3 1 -8 3 -12 4 -5 1 -13 5 -20 9 -6 4 -14 3 -17 -2z"/>
 <path d="M16885 4630 c-3 -5 0 -13 9 -16 21 -8 61 -1 61 11 0 14 -62 19 -70 5z"/>
 <path d="M16415 4620 c-8 -13 20 -24 41 -16 20 8 9 26 -16 26 -10 0 -22 -5 -25 -10z"/>
 <path d="M12944 4559 c-3 -6 -2 -15 4 -21 12 -12 43 -7 43 7 1 14 -39 26 -47 14z"/>
 <path d="M8755 4320 c-3 -6 -10 -8 -15 -5 -14 8 -82 -23 -75 -34 4 -7 15 -7 31 -1 36 14 42 13 46 -12 3 -20 9 -23 48 -23 l45 0 0 40 c0 39 -1 40 -37 43 -20 2 -39 -2 -43 -8z"/>
 <path d="M13825 4200 c-3 -5 8 -16 24 -25 18 -9 32 -11 36 -5 3 5 -8 16 -24 25 -18 9 -32 11 -36 5z"/>
 <path d="M30084 3426 c-3 -8 -4 -27 -2 -43 3 -27 6 -28 53 -28 l50 0 0 40 0 40 -48 3 c-34 2 -49 -1 -53 -12z"/>
 <path d="M21467 3284 c-38 -20 -24 -38 14 -19 16 9 27 20 24 25 -7 12 -4 13 -38 -6z"/>
 <path d="M15485 3060 c-3 -5 8 -16 24 -25 18 -9 32 -11 36 -5 3 5 -8 16 -24 25 -18 9 -32 11 -36 5z"/>
 <path d="M15555 3020 c-3 -5 8 -16 24 -25 18 -9 32 -11 36 -5 3 5 -8 16 -24 25 -18 9 -32 11 -36 5z"/>
 <path d="M19974 2766 c-3 -8 -4 -27 -2 -43 3 -26 6 -28 48 -28 l45 0 0 40 c0 40 0 40 -43 43 -30 2 -44 -1 -48 -12z"/>
 <path d="M19328 2653 c-34 -5 -57 -30 -35 -39 8 -3 32 -4 53 -2 31 2 39 7 39 23 0 21 -13 25 -57 18z"/>
 <path d="M24437 2473 c-11 -11 -8 -71 4 -79 13 -7 91 65 83 78 -6 10 -78 11 -87 1z"/>
 <path d="M14834 2397 c-3 -8 -4 -28 -2 -44 3 -26 6 -28 46 -28 23 0 42 5 43 10 0 6 -17 25 -40 44 -33 27 -42 30 -47 18z"/>
 <path d="M26654 2086 c-3 -8 -4 -25 -2 -38 3 -21 8 -23 53 -23 43 0 50 3 53 21 4 26 -13 40 -61 48 -28 5 -39 3 -43 -8z"/>
 <path d="M28034 2026 c-3 -8 -4 -27 -2 -43 3 -26 6 -28 48 -28 l45 0 0 40 c0 40 0 40 -43 43 -30 2 -44 -1 -48 -12z"/>
 <path d="M25997 1792 c-24 -10 -47 -57 -47 -98 0 -41 10 -47 70 -36 l45 8 0 64 c0 62 -1 65 -25 67 -14 1 -33 -1 -43 -5z"/>
 <path d="M15856 1662 c-7 -12 10 -26 57 -46 32 -13 39 -13 43 -1 14 35 0 50 -48 53 -25 2 -49 -1 -52 -6z"/>
 <path d="M27967 1504 c-9 -10 22 -66 33 -59 6 4 4 18 -5 36 -17 31 -18 32 -28 23z"/>
 <path d="M24856 1292 c-3 -6 1 -15 8 -21 8 -7 17 -8 20 -3 3 6 -1 15 -8 21 -8 7 -17 8 -20 3z"/>
 <path d="M28776 1292 c-3 -6 1 -15 8 -21 8 -7 17 -8 20 -3 3 6 -1 15 -8 21 -8 7 -17 8 -20 3z"/>
 <path d="M28836 1222 c-3 -5 3 -17 13 -26 11 -10 22 -13 25 -8 3 5 -3 17 -13 26 -11 10 -22 13 -25 8z"/>
 <path d="M24466 1162 c-3 -6 1 -15 8 -21 8 -7 17 -8 20 -3 3 6 -1 15 -8 21 -8 7 -17 8 -20 3z"/>
 <path d="M26825 1160 c-4 -6 -3 -16 3 -22 6 -6 12 -6 17 2 4 6 3 16 -3 22 -6 6 -12 6 -17 -2z"/>
 <path d="M27785 890 c-4 -6 -3 -16 3 -22 6 -6 12 -6 17 2 4 6 3 16 -3 22 -6 6 -12 6 -17 -2z"/>
 <path d="M25145 479 c-7 -10 55 -40 68 -32 12 7 -1 20 -33 31 -19 7 -32 7 -35 1z"/>
 <path d="M25544 476 c-3 -8 -4 -27 -2 -43 3 -27 6 -28 53 -28 l50 0 0 40 0 40 -48 3 c-34 2 -49 -1 -53 -12z"/>
 <path d="M25305 411 c-3 -6 3 -15 14 -21 12 -6 22 -6 26 -1 3 6 -3 15 -14 21 -12 6 -22 6 -26 1z"/>
 <path d="M25455 351 c-3 -6 3 -15 14 -21 12 -6 22 -6 26 -1 3 6 -3 15 -14 21 -12 6 -22 6 -26 1z"/>
 </g>

<g fill="#fff" stroke="none">
 <path d="M26825 10554 c-104 -7 -228 -20 -275 -29 -47 -9 -98 -19 -114 -22 -16 -3 -31 -14 -33 -24 -6 -23 -68 -27 -76 -5 -5 11 -15 12 -49 5 -67 -15 -73 -18 -60 -31 7 -7 12 -22 12 -35 0 -20 -5 -23 -34 -23 -30 0 -35 3 -38 28 -2 22 -7 27 -28 24 -67 -7 -548 -150 -575 -172 -5 -4 -41 -17 -78 -29 -95 -30 -322 -128 -480 -207 -260 -131 -556 -309 -539 -326 5 -5 60 -7 123 -6 l114 3 3 37 c3 36 5 37 45 40 39 3 42 5 45 36 l3 33 227 -1 227 -1 155 66 c437 188 923 312 1460 373 l65 7 3 108 3 107 34 0 34 0 3 -102 3 -103 245 3 c828 12 1593 -158 2316 -514 l190 -94 162 0 162 0 0 -24 c0 -21 -5 -25 -37 -28 -38 -3 -38 -3 -38 -49 l0 -46 170 -114 c170 -114 170 -114 220 -109 l50 5 3 72 3 72 37 3 c54 4 49 33 -13 81 -86 66 -358 243 -487 318 -255 147 -600 306 -888 408 -212 74 -526 162 -635 177 -27 3 -53 8 -56 10 -14 8 -208 43 -319 58 -286 37 -873 47 -1265 20z m855 -69 c0 -21 -5 -25 -30 -25 -25 0 -30 4 -30 25 0 21 5 25 30 25 25 0 30 -4 30 -25z m-1110 -70 c0 -22 -4 -25 -35 -25 -31 0 -35 3 -35 25 0 22 4 25 35 25 31 0 35 -3 35 -25z m1200 0 c0 -22 -4 -25 -35 -25 -31 0 -35 3 -35 25 0 22 4 25 35 25 31 0 35 -3 35 -25z m-1460 -75 c0 -27 -3 -30 -30 -30 -27 0 -30 3 -30 30 0 27 3 30 30 30 27 0 30 -3 30 -30z"/>
 <path d="M27364 10036 c-9 -24 4 -36 41 -36 60 0 58 32 -3 45 -24 5 -33 3 -38 -9z"/>
 <path d="M28011 9991 c-5 -9 -14 -61 -21 -116 -6 -55 -18 -129 -25 -164 -8 -36 -12 -68 -9 -73 3 -4 21 -8 40 -8 31 0 34 -2 34 -30 0 -28 -2 -30 -40 -30 -47 0 -58 -17 -62 -102 l-3 -53 71 -3 c49 -2 74 1 81 10 18 22 96 539 83 552 -6 6 -40 16 -76 22 -57 9 -66 9 -73 -5z"/>
 <path d="M26515 9988 c-33 -5 -63 -12 -67 -16 -3 -4 16 -178 43 -387 26 -209 56 -436 64 -505 9 -69 18 -131 21 -139 4 -11 30 -13 147 -8 199 8 305 39 386 113 56 50 84 107 82 163 -1 24 3 49 8 55 6 7 5 32 -1 65 -34 189 -195 296 -416 277 -42 -3 -88 -9 -102 -12 l-26 -6 -23 194 c-21 175 -31 220 -50 217 -3 -1 -33 -6 -66 -11z m398 -530 c88 -27 135 -114 123 -230 -7 -71 -14 -82 -75 -113 -96 -48 -240 -67 -241 -32 -1 7 -11 92 -24 190 l-22 178 25 5 c14 3 31 7 36 9 25 8 142 4 178 -7z"/>
 <path d="M27357 9933 c-3 -4 -7 -156 -8 -338 l-4 -330 75 0 75 0 8 54 c4 30 6 150 5 265 l-3 211 -27 3 c-26 3 -27 6 -30 70 l-3 67 -42 3 c-22 2 -43 -1 -46 -5z"/>
 <path d="M26075 9895 l-60 -22 -3 -176 -2 -175 -78 -28 c-42 -15 -115 -42 -162 -59 l-85 -31 -85 107 c-47 59 -94 119 -105 134 l-20 28 -70 -23 c-39 -13 -74 -26 -78 -30 -4 -4 23 -44 60 -90 37 -46 86 -106 108 -135 137 -176 171 -215 192 -215 17 0 22 -7 25 -32 3 -32 4 -33 53 -33 l50 0 3 54 c3 47 0 57 -24 82 -15 16 -36 29 -46 29 -13 0 -18 8 -18 25 0 22 4 25 33 25 18 0 37 -4 43 -10 10 -10 105 20 182 56 19 9 35 14 37 12 2 -2 5 -102 7 -224 l3 -220 -49 65 c-85 115 -106 130 -106 75 0 -22 -4 -24 -43 -24 -52 0 -60 -6 -45 -34 19 -36 219 -281 232 -284 7 -1 46 10 87 26 l74 28 -4 485 c-4 547 -9 633 -31 635 -8 1 -42 -8 -75 -21z m65 -515 c0 -28 -3 -30 -35 -30 -32 0 -35 2 -35 30 0 28 3 30 35 30 32 0 35 -2 35 -30z"/>
 <path d="M28507 9793 c-8 -15 -17 -717 -9 -773 l7 -55 60 0 60 0 7 40 c4 22 8 122 9 221 l3 181 66 -27 c36 -15 95 -38 132 -51 55 -19 65 -26 58 -40 -12 -22 -3 -29 37 -29 32 0 33 -1 33 -44 0 -57 13 -64 42 -24 12 18 51 67 85 108 35 41 63 83 63 93 0 9 6 17 13 17 8 0 51 48 96 106 90 116 93 134 21 134 -21 0 -43 7 -50 15 -7 8 -20 15 -29 15 -10 0 -62 -57 -121 -130 -66 -84 -108 -129 -117 -126 -8 3 -66 22 -130 42 -64 20 -128 43 -142 50 -14 8 -30 14 -36 14 -6 0 -10 51 -10 132 l0 133 -72 3 c-39 2 -73 -1 -76 -5z m203 -338 c0 -21 -5 -25 -30 -25 -25 0 -30 4 -30 25 0 21 5 25 30 25 25 0 30 -4 30 -25z"/>
 <path d="M24324 9633 c-258 -179 -476 -363 -714 -603 -345 -346 -576 -642 -825 -1055 -131 -218 -385 -751 -369 -776 3 -5 32 -9 64 -9 l59 0 3 -32 c3 -31 6 -33 45 -36 33 -2 42 -7 45 -23 6 -42 25 -15 77 113 30 73 106 234 168 358 97 192 113 231 111 265 -3 39 -4 40 -45 43 -38 3 -43 6 -43 28 0 25 0 25 87 23 l86 -2 90 134 c106 158 223 316 342 457 56 68 85 111 85 127 0 18 5 25 20 25 12 0 80 59 177 156 167 166 338 317 506 446 56 44 118 93 137 109 19 17 55 42 80 56 25 14 54 33 66 44 11 10 25 19 30 19 18 0 84 51 79 61 -4 5 -58 9 -121 9 l-114 0 0 64 c0 36 -4 67 -8 70 -5 3 -58 -29 -118 -71z m106 -178 c0 -22 -4 -25 -35 -25 -31 0 -35 3 -35 25 0 22 4 25 35 25 31 0 35 -3 35 -25z m-1800 -2070 c0 -22 -4 -25 -35 -25 -31 0 -35 3 -35 25 0 22 4 25 35 25 31 0 35 -3 35 -25z"/>
 <path d="M29885 9641 c-3 -6 3 -15 14 -21 21 -11 37 2 26 20 -8 13 -32 13 -40 1z"/>
 <path d="M25043 9461 c-111 -38 -219 -108 -293 -188 -74 -82 -129 -188 -133 -258 l-2 -50 79 0 79 0 13 63 c29 141 143 252 314 306 39 13 72 25 75 28 7 6 -25 100 -39 115 -9 10 -29 6 -93 -16z m-191 -234 c3 -31 2 -32 -29 -29 -29 4 -33 8 -33 33 0 25 4 29 29 29 25 0 29 -4 33 -33z"/>
 <path d="M29321 9045 c-149 -246 -271 -451 -271 -456 0 -14 123 -90 132 -81 3 4 109 176 234 382 124 206 232 381 239 388 10 11 46 -8 194 -97 99 -61 185 -111 190 -111 17 0 70 104 60 117 -10 12 -465 288 -492 299 -11 4 -89 -117 -286 -441z"/>
 <path d="M30685 9377 c-3 -7 -5 -54 -3 -103 l3 -89 43 -3 c37 -3 42 -6 42 -28 0 -23 -2 -24 -74 -24 l-75 0 -3 33 c-3 29 -6 32 -42 35 -58 5 -62 -10 -14 -49 24 -18 90 -77 148 -129 444 -403 798 -857 1085 -1392 36 -67 70 -130 75 -138 22 -38 156 -363 204 -497 50 -136 116 -350 149 -483 13 -53 14 -55 50 -58 32 -3 37 -7 37 -28 0 -19 -5 -24 -24 -24 -14 0 -27 -3 -29 -7 -2 -5 6 -60 20 -123 23 -113 69 -422 81 -550 4 -36 7 -231 6 -435 0 -396 -8 -511 -60 -825 -246 -1486 -1155 -2788 -2474 -3541 -1039 -593 -2287 -795 -3460 -558 -466 93 -867 232 -1297 450 -117 58 -215 104 -218 101 -3 -3 -5 -50 -5 -104 l0 -98 -30 0 -30 0 0 100 c0 99 0 100 24 100 49 0 35 19 -51 71 -49 29 -127 79 -175 111 -86 57 -88 58 -158 58 l-70 0 0 29 c0 17 5 33 10 36 16 10 7 18 -121 121 -611 486 -1083 1070 -1414 1749 -258 529 -412 1067 -482 1677 -25 219 -25 840 0 1053 47 396 130 772 247 1109 24 70 37 123 32 128 -5 5 -47 8 -93 6 l-84 -3 -3 -32 c-3 -29 -7 -33 -32 -33 -28 0 -29 2 -32 53 -2 28 -7 51 -13 50 -15 -2 -118 -328 -169 -535 -385 -1552 -49 -3188 916 -4460 489 -644 1109 -1165 1815 -1525 l203 -103 162 2 163 3 3 33 c3 29 6 32 37 32 31 0 34 -3 37 -33 l3 -32 82 -3 82 -3 3 -32 3 -32 83 -3 82 -3 0 -64 0 -64 -85 -3 c-49 -2 -85 -7 -84 -13 1 -13 243 -85 436 -130 213 -50 483 -94 648 -106 413 -30 1004 -20 1310 22 535 75 1072 242 1575 490 327 161 555 302 844 519 492 370 889 789 1231 1300 430 643 696 1314 824 2079 33 194 61 567 61 809 l0 122 -25 0 c-21 0 -25 5 -25 30 0 25 4 30 24 30 26 0 25 -7 17 143 -1 20 -6 27 -21 27 -15 0 -20 7 -20 25 0 17 5 25 18 25 16 0 18 9 15 98 -14 447 -172 1094 -395 1617 -68 159 -232 486 -286 572 -21 32 -46 74 -56 94 -11 20 -35 61 -55 90 -30 44 -42 55 -68 57 -27 3 -33 8 -33 26 0 12 5 27 10 32 16 16 -153 249 -353 488 -130 154 -430 456 -572 577 -119 101 -124 104 -130 86z m1795 -3617 c0 -27 -3 -30 -30 -30 -27 0 -30 3 -30 30 0 27 3 30 30 30 27 0 30 -3 30 -30z m90 -75 c0 -22 -4 -25 -35 -25 -31 0 -35 3 -35 25 0 22 4 25 35 25 31 0 35 -3 35 -25z m-9340 -3545 c0 -28 -3 -30 -35 -30 -32 0 -35 2 -35 30 0 28 3 30 35 30 32 0 35 -2 35 -30z m8140 -75 c0 -22 -4 -25 -35 -25 -31 0 -35 3 -35 25 0 22 4 25 35 25 31 0 35 -3 35 -25z m-170 -220 c0 -22 -4 -25 -35 -25 -31 0 -35 3 -35 25 0 22 4 25 35 25 31 0 35 -3 35 -25z m-4800 -1625 l0 -30 -75 0 -75 0 0 30 0 30 75 0 75 0 0 -30z"/>
 <path d="M27896 9272 c-2 -4 -10 -46 -16 -92 -6 -47 -13 -86 -14 -88 -2 -1 -59 7 -127 18 -152 25 -176 25 -187 3 -17 -33 -23 -101 -10 -110 7 -4 183 -35 391 -69 428 -68 394 -71 399 27 l3 54 -150 24 c-82 13 -152 25 -154 27 -2 2 4 46 13 99 9 53 14 101 10 106 -6 11 -151 12 -158 1z"/>
 <path d="M27347 9193 c-3 -4 -6 -53 -8 -108 l-4 -100 80 0 80 0 0 70 c0 64 -2 70 -22 73 -16 2 -23 11 -25 35 -3 30 -5 32 -50 35 -25 2 -48 -1 -51 -5z"/>
 <path d="M28757 9112 c-91 -111 -110 -141 -94 -148 9 -3 26 -4 39 -2 19 2 24 10 26 41 l3 37 79 0 78 0 31 39 c17 21 28 41 24 45 -3 3 -33 6 -65 6 -44 0 -58 4 -58 14 0 31 -18 22 -63 -32z"/>
 <path d="M11070 8930 c-152 -8 -343 -24 -554 -47 -46 -5 -60 -10 -64 -25 -4 -17 -14 -19 -116 -17 -117 2 -170 -5 -471 -67 -282 -58 -652 -154 -682 -177 -7 -5 -13 -20 -13 -34 0 -24 0 -24 -102 -22 -103 1 -103 1 -310 -70 -597 -205 -1160 -453 -1625 -717 -357 -204 -918 -449 -1436 -629 -98 -34 -178 -66 -178 -71 0 -5 12 -10 26 -12 19 -3 25 -9 25 -28 0 -21 -5 -24 -35 -24 -30 0 -35 3 -35 24 0 14 -5 28 -10 31 -6 3 -88 -16 -183 -44 -686 -199 -1256 -296 -1876 -320 -1267 -50 -2360 290 -3254 1012 -54 43 -100 77 -102 75 -38 -41 -75 -94 -75 -107 0 -28 261 -231 481 -374 551 -359 1197 -601 1873 -703 894 -134 1886 -48 2941 256 249 72 278 83 290 109 9 20 15 22 55 18 48 -5 106 12 410 126 351 131 894 381 1190 549 665 378 1636 750 2441 936 424 99 921 174 1268 193 266 14 801 6 1001 -15 1042 -112 1870 -457 2648 -1104 338 -281 605 -460 936 -628 107 -55 151 -73 159 -65 6 6 44 11 84 11 l73 0 0 -46 c0 -44 1 -45 48 -65 26 -11 66 -29 89 -40 136 -64 576 -190 853 -244 510 -99 1163 -119 1738 -54 785 88 1600 310 2402 655 240 103 502 228 501 240 0 5 -28 10 -61 12 -59 3 -60 3 -60 32 l0 30 75 0 c72 0 75 -1 75 -23 0 -13 2 -26 5 -29 11 -11 385 188 400 212 7 12 -35 89 -59 109 -12 10 -38 -1 -148 -62 -614 -343 -1388 -650 -2103 -832 -511 -131 -903 -190 -1600 -243 l-90 -7 -3 -32 -3 -33 -74 0 -74 0 -3 33 c-3 31 -4 32 -53 32 -49 0 -50 -1 -53 -32 l-3 -33 -75 0 -74 0 0 40 c0 53 -5 54 -208 74 -324 32 -672 103 -980 201 -132 41 -152 45 -247 45 l-104 0 -3 40 -3 41 -130 58 c-409 183 -756 402 -1125 710 -226 189 -474 368 -658 474 -51 30 -64 34 -68 22 -4 -9 -19 -15 -40 -15 -32 0 -34 2 -34 33 0 20 -7 41 -18 50 -26 24 -366 186 -514 246 -267 107 -668 224 -913 265 -55 10 -136 23 -180 31 -329 57 -820 84 -1205 65z"/>
 <path d="M24618 8905 c-10 -10 18 -120 45 -179 113 -247 351 -395 577 -357 95 15 166 43 252 100 69 44 178 152 178 175 0 6 -21 30 -47 53 l-48 43 -20 -27 c-13 -18 -18 -39 -16 -65 l3 -38 -41 0 c-27 0 -56 -10 -88 -29 -74 -45 -140 -64 -223 -65 -177 -1 -310 118 -409 367 -10 26 -13 27 -84 27 -41 0 -76 -2 -79 -5z"/>
 <path d="M28494 8829 c-10 -16 4 -25 86 -53 l75 -25 33 35 c18 19 30 39 27 44 -9 14 -212 13 -221 -1z"/>
 <path d="M27125 8770 c-869 -60 -1675 -435 -2281 -1062 -657 -680 -1007 -1577 -980 -2508 12 -384 69 -705 186 -1045 78 -224 232 -553 270 -577 11 -7 20 -22 20 -34 0 -29 97 -181 215 -339 173 -231 370 -437 579 -608 l70 -57 83 0 83 0 0 -60 c0 -59 1 -60 43 -91 54 -40 236 -149 307 -184 188 -94 247 -122 355 -165 192 -76 495 -167 509 -152 3 3 6 18 6 34 0 24 4 28 29 28 28 0 30 -3 33 -42 l3 -42 70 -13 c220 -41 309 -47 625 -47 329 -1 407 6 660 55 307 59 599 158 882 299 202 101 493 281 493 305 0 6 -30 11 -67 13 l-67 3 -3 37 c-3 37 -3 37 -55 42 -49 5 -57 3 -130 -43 -304 -189 -665 -333 -1028 -413 -93 -20 -175 -43 -181 -50 -13 -16 -55 -19 -69 -5 -6 6 -40 6 -85 1 -235 -28 -552 -22 -828 16 -114 15 -132 14 -132 -12 0 -9 -11 -14 -35 -14 -30 0 -35 3 -35 24 0 30 -15 42 -66 51 -23 3 -75 17 -115 30 -41 13 -77 21 -81 18 -5 -2 -8 -15 -8 -29 0 -23 -2 -24 -75 -24 l-75 0 0 29 c0 27 4 30 35 33 20 2 34 8 33 13 -2 9 -120 60 -158 69 -35 8 -293 130 -388 184 -41 23 -85 42 -98 42 -14 0 -24 6 -24 14 0 8 -17 25 -37 37 -361 221 -751 606 -996 985 -344 531 -519 1126 -519 1764 0 308 27 535 98 812 35 137 36 158 8 158 -8 0 -14 10 -14 25 0 20 5 25 24 25 31 0 48 21 49 62 2 31 0 33 -35 36 -33 3 -38 7 -38 27 0 22 4 24 57 27 66 3 54 -12 138 178 204 462 522 869 937 1203 505 406 1132 651 1788 700 149 12 155 13 158 35 3 21 8 22 82 22 74 0 79 -1 82 -22 3 -22 9 -23 148 -34 260 -21 481 -62 708 -130 107 -32 121 -34 235 -32 l122 3 3 37 3 37 60 3 c32 2 60 7 62 12 2 10 -123 57 -135 50 -4 -3 -8 -14 -8 -25 0 -15 -7 -19 -35 -19 -34 0 -35 1 -35 39 0 21 -6 43 -12 49 -42 34 -411 134 -628 171 -237 40 -561 57 -795 41z m1335 -275 c0 -22 -4 -25 -35 -25 -31 0 -35 3 -35 25 0 22 4 25 35 25 31 0 35 -3 35 -25z m-2830 -6060 c0 -25 -1 -25 -80 -25 -79 0 -80 0 -80 25 0 25 1 25 80 25 79 0 80 0 80 -25z m250 -220 c0 -21 -5 -25 -30 -25 -25 0 -30 4 -30 25 0 21 5 25 30 25 25 0 30 -4 30 -25z m2230 -220 c0 -21 -5 -25 -30 -25 -25 0 -30 4 -30 25 0 21 5 25 30 25 25 0 30 -4 30 -25z"/>
 <path d="M28804 8436 c-3 -8 -4 -25 -2 -38 2 -19 10 -24 41 -26 32 -3 37 -7 37 -27 l0 -24 -142 -3 c-79 -2 -142 -7 -141 -12 1 -4 53 -32 115 -61 407 -190 764 -454 1065 -788 126 -140 138 -156 277 -362 161 -239 274 -464 371 -740 35 -98 47 -121 64 -123 23 -4 29 -40 10 -59 -8 -8 -4 -40 14 -120 114 -478 121 -972 21 -1445 -160 -758 -607 -1459 -1226 -1922 -43 -32 -75 -62 -72 -67 3 -5 20 -9 39 -9 31 0 34 -3 37 -32 l3 -33 91 -3 c106 -3 80 -18 279 159 170 151 312 309 496 551 27 36 18 48 -37 48 l-44 0 0 60 0 60 34 0 c32 0 35 -3 38 -32 3 -29 7 -33 34 -36 27 -3 36 4 81 65 27 37 62 89 77 115 24 41 26 49 12 54 -10 4 -16 18 -16 35 0 26 3 29 35 29 35 0 36 1 85 103 172 355 263 643 320 1013 22 146 47 481 37 507 -3 9 -16 17 -27 17 -30 0 -28 47 3 52 22 3 22 5 19 123 -2 66 -10 167 -18 225 -8 58 -19 135 -24 172 -5 38 -12 72 -15 78 -3 5 -21 10 -40 10 -32 0 -34 2 -37 38 -3 35 -5 37 -40 40 -33 3 -38 7 -38 28 0 23 3 24 55 24 38 0 57 4 61 14 10 25 -77 314 -145 484 -98 244 -269 553 -403 730 l-40 52 -109 0 -109 0 0 65 0 65 49 0 c28 0 52 4 55 9 7 11 -164 201 -283 314 -172 163 -378 322 -581 447 -80 50 -342 190 -355 190 -3 0 -8 -6 -11 -14z m1966 -3191 c0 -22 -4 -25 -35 -25 -31 0 -35 3 -35 25 0 22 4 25 35 25 31 0 35 -3 35 -25z m-1110 -2509 c0 -22 -5 -25 -42 -28 -42 -3 -43 -4 -46 -40 -3 -36 -5 -38 -38 -38 l-34 0 0 65 0 65 80 0 c78 0 80 -1 80 -24z"/>
 <path d="M10975 7889 c-345 -22 -687 -67 -1050 -141 -137 -28 -263 -53 -278 -55 -16 -3 -34 -14 -40 -24 -9 -15 -24 -19 -73 -19 -78 0 -360 -78 -724 -199 -622 -208 -1125 -427 -1660 -724 -654 -363 -1541 -705 -2275 -877 -77 -19 -146 -38 -153 -43 -6 -5 -12 -25 -12 -43 0 -32 -2 -34 -35 -34 -30 0 -35 3 -35 24 0 14 -4 27 -9 31 -6 3 -81 -8 -168 -24 -1035 -194 -2008 -155 -2843 114 -546 176 -1001 426 -1489 817 l-54 43 -38 -45 c-22 -25 -39 -52 -39 -62 0 -44 407 -343 690 -505 593 -341 1242 -541 1990 -615 178 -17 887 -17 1065 0 783 77 1477 240 2265 534 452 169 835 345 1245 573 605 336 1374 646 2100 845 163 45 170 47 173 73 3 23 8 27 34 27 17 0 36 -7 43 -16 10 -15 24 -13 146 14 518 118 1125 192 1577 192 64 0 84 3 88 15 8 20 54 19 68 -1 10 -12 47 -17 186 -25 294 -15 615 -56 854 -108 46 -10 88 -15 93 -11 4 5 24 10 43 12 32 3 35 6 38 40 2 29 8 37 25 40 47 7 14 24 -95 50 -138 34 -426 83 -608 103 -262 30 -768 41 -1045 24z"/>
 <path d="M12774 7715 c-3 -7 -4 -28 -2 -47 3 -30 6 -33 41 -36 30 -3 37 -7 37 -24 0 -11 -8 -27 -17 -34 -21 -15 -29 -11 102 -49 88 -26 148 -46 349 -119 94 -34 98 -35 103 -16 4 14 14 20 35 20 29 0 30 -2 26 -36 -4 -34 -2 -38 31 -51 94 -39 366 -181 503 -264 l152 -92 88 2 88 2 0 -30 c0 -26 -4 -31 -24 -31 -38 0 -39 -15 -2 -43 35 -27 46 -26 46 5 0 14 8 18 35 18 l34 0 3 -57 3 -58 100 -83 c228 -191 496 -396 569 -437 12 -6 59 -36 106 -66 166 -107 436 -251 630 -334 137 -59 309 -123 315 -117 3 3 5 16 5 29 0 20 5 23 35 23 33 0 35 -2 35 -34 0 -18 6 -39 13 -45 21 -17 74 -25 81 -12 4 6 23 11 42 11 29 0 34 -3 34 -25 0 -31 13 -37 151 -74 225 -60 533 -114 799 -141 176 -17 549 -31 664 -24 94 6 109 9 113 26 8 27 69 25 76 -2 5 -19 11 -20 69 -15 34 3 119 10 188 15 254 21 605 73 616 91 3 5 27 9 54 9 93 0 463 85 809 185 523 151 1045 356 1557 611 297 147 324 164 324 204 0 27 3 30 29 30 17 0 33 -4 36 -10 7 -12 65 15 65 31 0 5 -16 35 -35 65 l-36 56 -32 -20 c-18 -11 -59 -36 -92 -55 -97 -59 -93 -55 -67 -63 15 -4 22 -14 22 -30 0 -20 -5 -24 -30 -24 -23 0 -30 5 -30 19 0 11 -4 22 -10 26 -5 3 -98 -39 -207 -93 -714 -357 -1479 -622 -2243 -775 -96 -20 -117 -27 -125 -45 -11 -26 -61 -30 -79 -8 -9 12 -36 10 -176 -10 -318 -45 -465 -56 -825 -61 -389 -5 -576 5 -870 46 -193 26 -536 105 -747 171 -69 22 -131 40 -138 40 -6 0 -30 8 -53 19 -23 10 -96 40 -162 66 -353 139 -743 359 -1066 603 -72 53 -105 72 -128 72 -26 0 -31 4 -31 23 0 38 -19 47 -96 47 l-73 0 -3 38 c-3 36 -4 37 -45 40 -38 3 -43 6 -43 28 0 19 5 24 24 24 14 0 27 4 30 8 11 18 -291 236 -514 370 -242 146 -723 374 -751 356 -5 -3 -9 -14 -9 -25 0 -14 -7 -19 -30 -19 -25 0 -30 4 -30 23 0 13 5 28 11 34 13 13 -9 24 -136 66 -188 63 -316 95 -321 82z m4626 -2175 c0 -28 -3 -30 -35 -30 -32 0 -35 2 -35 30 0 28 3 30 35 30 32 0 35 -2 35 -30z"/>
 <path d="M24890 7071 c-20 -6 -25 -13 -24 -39 3 -57 8 -62 63 -55 65 7 97 -2 118 -34 16 -24 19 -61 23 -293 l5 -265 50 0 50 0 3 258 c1 161 -2 274 -8 298 -16 58 -71 114 -125 128 -48 12 -116 13 -155 2z"/>
 <path d="M25445 7061 c-57 -26 -111 -90 -130 -154 -12 -43 -15 -99 -13 -288 l3 -234 50 0 50 0 5 240 c5 233 6 242 31 290 19 39 33 52 60 60 47 14 59 23 59 46 0 16 7 19 39 19 22 0 42 4 46 9 20 33 -134 42 -200 12z"/>
 <path d="M27367 7066 c-59 -21 -67 -32 -55 -69 14 -43 24 -53 40 -40 15 13 124 34 153 31 15 -2 21 4 23 24 2 20 10 28 28 30 31 4 32 21 2 30 -41 11 -152 8 -191 -6z"/>
 <path d="M28644 7048 c-57 -39 -98 -111 -115 -203 -14 -76 -5 -225 17 -290 23 -66 107 -151 158 -161 186 -34 296 107 283 366 -10 213 -90 320 -239 320 -46 0 -64 -6 -104 -32z m150 -68 c74 -28 106 -242 61 -406 -16 -56 -36 -79 -78 -89 -43 -11 -83 11 -106 59 -31 62 -44 181 -32 271 20 141 72 197 155 165z"/>
 <path d="M29694 7061 c-98 -44 -151 -155 -141 -295 6 -96 25 -152 73 -223 61 -90 195 -159 291 -151 38 3 38 3 38 47 0 37 -3 44 -20 47 -92 11 -118 18 -158 44 -42 26 -107 113 -94 126 3 3 19 -2 36 -10 143 -74 301 30 301 196 0 40 -7 78 -19 103 -22 47 -84 109 -124 124 -44 17 -137 13 -183 -8z m155 -86 c31 -16 61 -77 61 -125 0 -16 -7 -47 -16 -69 -36 -89 -174 -89 -220 1 -29 56 13 175 70 198 32 13 74 11 105 -5z"/>
 <path d="M25965 7056 c-19 -14 -20 -26 -20 -343 l0 -328 59 0 59 0 80 125 c44 69 113 179 153 244 l73 119 3 -134 c3 -126 4 -134 23 -134 15 0 21 8 23 32 3 26 8 32 30 35 l27 3 0 195 0 195 -51 3 c-38 2 -54 -1 -65 -15 -24 -27 -266 -416 -286 -459 -18 -36 -18 -35 -23 217 l-5 254 -30 3 c-16 2 -39 -4 -50 -12z"/>
 <path d="M26977 7064 c-4 -4 -7 -74 -7 -156 0 -123 3 -150 15 -154 8 -4 15 -18 15 -34 0 -16 -7 -30 -15 -34 -12 -4 -15 -24 -15 -86 0 -44 -2 -80 -5 -80 -3 0 -24 9 -47 21 -35 18 -43 19 -55 7 -7 -8 -15 -27 -16 -42 -2 -25 6 -32 72 -67 58 -31 83 -39 115 -37 l41 3 0 330 0 330 -45 3 c-25 2 -49 0 -53 -4z"/>
 <path d="M28027 7063 c-4 -3 -7 -18 -7 -31 0 -19 32 -58 123 -151 141 -144 176 -196 184 -275 5 -51 4 -57 -25 -85 -26 -27 -38 -31 -85 -31 -38 0 -68 7 -101 25 l-46 25 -18 -36 -17 -36 33 -28 c41 -34 94 -50 165 -50 69 0 102 12 146 53 43 41 61 84 61 145 0 99 -37 162 -172 300 l-81 82 125 0 c138 0 152 6 146 57 -3 25 -8 29 -48 35 -59 9 -375 10 -383 1z"/>
 <path d="M29247 7064 c-4 -4 -7 -128 -7 -276 0 -147 -2 -268 -5 -268 -2 0 -25 10 -50 22 -51 25 -63 20 -67 -31 -3 -32 0 -36 67 -73 57 -31 79 -38 115 -36 l45 3 0 330 0 330 -45 3 c-25 2 -49 0 -53 -4z"/>
 <path d="M27607 7044 c-11 -11 -8 -119 4 -150 7 -20 7 -42 -1 -74 -15 -64 -53 -83 -173 -85 -48 -1 -90 -4 -93 -7 -7 -8 35 -311 45 -321 4 -4 79 -6 167 -5 l159 3 0 45 0 45 -122 3 -122 3 -5 27 c-3 15 -8 46 -11 70 l-7 42 47 0 c104 0 189 53 221 136 17 44 17 47 1 59 -19 14 -22 46 -6 62 5 5 7 21 4 35 -7 29 -98 122 -108 112z"/>
 <path d="M25646 6982 c-3 -6 2 -16 11 -23 41 -34 47 -75 53 -329 l5 -245 50 0 50 0 0 255 c0 254 0 255 -25 300 -25 44 -26 45 -82 48 -31 2 -59 -1 -62 -6z"/>
 <path d="M10970 6853 c-953 -56 -2032 -333 -3063 -785 -187 -82 -585 -279 -734 -364 -409 -232 -1036 -506 -1518 -664 -71 -23 -143 -48 -160 -55 -26 -11 -221 -67 -505 -144 -274 -74 -889 -186 -1132 -206 -533 -43 -873 -43 -1268 0 -760 83 -1454 327 -2050 720 -137 91 -314 221 -402 297 l-56 48 -41 -46 c-23 -26 -41 -55 -41 -65 0 -16 87 -91 245 -210 356 -270 852 -527 1305 -676 981 -324 2129 -335 3377 -33 799 193 1677 538 2360 926 167 95 521 267 768 372 997 425 1989 674 2915 732 328 20 787 9 1060 -25 176 -22 235 -23 235 -5 0 10 -12 16 -37 18 -35 3 -38 6 -38 33 l0 29 74 0 75 0 3 -37 3 -38 90 0 90 0 3 33 c4 37 -12 46 -99 57 -30 3 -94 14 -144 25 -231 47 -549 70 -945 68 -173 -1 -340 -3 -370 -5z"/>
 <path d="M12604 6676 c-3 -8 -4 -27 -2 -43 3 -24 8 -28 38 -31 25 -2 39 -9 45 -24 8 -17 36 -28 130 -54 123 -34 145 -36 145 -10 0 13 23 16 133 18 72 2 132 6 132 11 0 18 -436 153 -449 139 -3 -3 -6 -18 -6 -34 0 -25 -3 -28 -34 -28 -32 0 -35 3 -38 33 -3 30 -6 32 -46 35 -30 2 -44 -1 -48 -12z m336 -101 c0 -22 -4 -25 -35 -25 -31 0 -35 3 -35 25 0 22 4 25 35 25 31 0 35 -3 35 -25z"/>
 <path d="M26374 6537 c-3 -8 -4 -45 -2 -83 l3 -69 50 0 50 0 0 80 0 80 -48 3 c-33 2 -49 -1 -53 -11z"/>
 <path d="M13287 6513 c-4 -3 -7 -14 -7 -24 0 -16 -11 -19 -100 -21 -55 -2 -101 -7 -103 -12 -1 -5 23 -17 53 -28 30 -10 64 -22 75 -27 11 -5 83 -35 160 -67 274 -112 571 -271 815 -438 156 -106 373 -270 404 -305 11 -11 30 -21 43 -21 13 0 23 -6 23 -14 0 -8 21 -33 47 -56 41 -36 49 -39 59 -26 8 12 29 16 82 16 l71 0 3 -32 c3 -31 6 -33 46 -36 39 -3 42 -5 42 -33 0 -27 -2 -29 -39 -29 -22 0 -42 -4 -46 -9 -12 -21 246 -196 487 -330 169 -94 373 -192 382 -184 3 4 6 19 6 35 l0 28 75 0 c73 0 75 -1 75 -25 0 -24 -2 -25 -69 -25 -129 0 -100 -21 160 -120 70 -27 155 -56 189 -66 59 -16 64 -16 75 -1 9 13 28 17 83 17 l71 0 3 -32 c3 -31 6 -33 43 -36 30 -2 43 -9 50 -24 6 -12 24 -26 40 -30 62 -17 373 -78 445 -87 365 -46 371 -47 385 -28 9 13 27 17 81 17 62 0 70 -2 79 -22 10 -23 11 -23 262 -26 318 -3 501 8 518 31 15 20 71 23 78 4 4 -11 26 -11 129 -1 303 33 804 123 824 150 8 9 28 14 60 13 160 -5 1157 319 1557 505 28 13 115 52 192 87 253 112 666 327 709 369 18 17 17 19 -8 63 -44 74 -43 74 -145 16 -100 -57 -110 -66 -87 -75 10 -4 16 -18 16 -35 0 -26 -4 -29 -30 -29 -25 0 -30 4 -30 23 0 13 -3 26 -6 29 -9 9 -425 -202 -419 -213 4 -5 17 -9 31 -9 19 0 24 -5 24 -25 0 -21 -5 -25 -30 -25 -25 0 -30 4 -30 24 0 44 30 53 -355 -108 -1187 -499 -2437 -721 -3485 -621 -91 9 -174 17 -185 18 -15 2 -21 -5 -23 -25 -3 -24 -8 -28 -37 -28 -31 0 -34 3 -37 32 -3 37 -22 45 -106 47 -29 1 -60 5 -70 11 -33 19 -336 80 -346 70 -17 -17 -76 -12 -76 6 0 19 -9 23 -300 124 -232 81 -245 86 -509 217 -286 141 -526 289 -747 458 -68 53 -105 75 -126 75 -21 0 -28 5 -28 19 0 56 -454 400 -772 585 -95 56 -97 56 -177 56 l-81 0 0 39 c0 21 -6 43 -13 49 -26 22 -394 182 -418 182 -3 0 -9 -3 -12 -7z"/>
 <path d="M11020 5819 c-1113 -60 -2371 -408 -3490 -966 -243 -121 -652 -341 -673 -362 -6 -6 -17 -11 -23 -11 -7 0 -106 -43 -220 -95 -1007 -464 -2048 -741 -3024 -806 -224 -15 -765 -6 -955 15 -981 110 -1746 419 -2464 995 l-94 75 -38 -45 c-21 -24 -38 -53 -39 -64 0 -40 357 -305 635 -472 543 -325 1171 -538 1840 -623 254 -32 429 -42 725 -43 298 0 477 11 770 44 1072 124 2270 518 3280 1079 288 160 582 301 905 434 88 37 169 71 180 76 11 5 33 14 48 20 16 6 31 20 34 31 5 18 12 20 47 17 30 -3 70 6 152 36 62 23 113 46 115 51 2 6 -11 11 -28 13 -27 3 -33 7 -33 28 0 21 5 24 35 24 32 0 35 -3 35 -28 0 -16 3 -31 6 -34 3 -4 45 7 92 23 160 54 415 130 627 185 116 30 218 59 227 64 10 6 31 10 46 10 16 0 80 11 142 25 151 33 490 89 675 110 83 10 156 22 163 28 6 5 12 20 12 33 0 21 5 24 34 24 30 0 35 -3 38 -27 2 -23 8 -28 28 -26 169 10 609 24 632 19 24 -5 31 -2 35 14 7 27 68 29 76 1 4 -16 20 -19 138 -25 245 -13 571 -56 804 -106 78 -16 91 -17 101 -4 6 8 23 14 37 14 19 0 26 -6 29 -22 3 -20 17 -27 103 -51 245 -68 536 -172 718 -256 49 -23 98 -41 108 -41 10 0 19 -4 19 -10 0 -5 33 -26 73 -46 293 -147 592 -349 917 -619 592 -491 1188 -799 1920 -992 116 -30 149 -35 238 -34 86 2 102 -1 102 -14 0 -21 29 -32 145 -50 550 -86 1168 -82 1805 11 752 109 1538 345 2315 694 303 136 760 376 771 405 3 7 -11 38 -31 70 l-36 56 -26 -17 c-114 -74 -646 -343 -838 -423 -432 -180 -762 -299 -1095 -396 -792 -231 -1507 -328 -2230 -304 -817 28 -1570 234 -2240 614 -228 129 -495 320 -805 575 -70 58 -179 142 -242 188 -107 76 -119 82 -164 82 -45 0 -49 2 -49 23 0 24 -38 66 -78 87 -21 10 -24 9 -29 -9 -8 -31 -63 -30 -63 0 0 12 8 27 17 34 14 11 7 17 -53 52 -119 69 -307 163 -315 157 -5 -3 -9 -14 -9 -25 0 -15 -7 -19 -35 -19 -31 0 -35 3 -35 25 0 15 6 25 14 25 25 0 28 18 5 30 -15 9 -24 9 -32 1 -6 -6 -26 -11 -43 -11 -28 0 -33 4 -36 27 -4 31 -27 46 -148 93 -318 123 -799 249 -1088 284 -48 6 -54 5 -59 -14 -5 -19 -13 -20 -124 -20 l-119 0 0 30 c0 18 -7 33 -17 39 -47 24 -587 37 -893 20z m-650 -134 c0 -22 -4 -25 -35 -25 -31 0 -35 3 -35 25 0 22 4 25 35 25 31 0 35 -3 35 -25z"/>
 <path d="M23030 5694 c-116 -31 -220 -119 -273 -232 -30 -63 -32 -74 -32 -177 0 -104 2 -114 32 -176 105 -213 359 -302 564 -199 112 57 192 154 224 275 82 300 -212 590 -515 509z"/>
 <path d="M31465 5696 c-169 -41 -307 -202 -322 -374 -6 -78 8 -153 42 -222 50 -99 169 -200 235 -200 19 0 38 -7 45 -16 16 -22 141 -22 216 -1 60 18 156 76 152 92 -2 6 -25 11 -53 13 -48 3 -50 4 -50 33 l0 29 73 0 c40 0 78 -5 84 -11 8 -8 18 1 36 33 46 78 60 140 55 237 -3 75 -9 99 -37 156 -90 182 -286 277 -476 231z m-5 -341 l0 -65 -35 0 -35 0 0 65 0 65 35 0 35 0 0 -65z m170 35 c0 -28 -3 -30 -35 -30 -32 0 -35 2 -35 30 0 28 3 30 35 30 32 0 35 -2 35 -30z m-90 -445 c0 -21 -5 -25 -30 -25 -25 0 -30 4 -30 25 0 21 5 25 30 25 25 0 30 -4 30 -25z"/>
 <path d="M10935 4779 c-628 -41 -1355 -185 -2023 -401 -130 -42 -161 -60 -114 -66 16 -2 22 -10 22 -27 0 -20 -6 -24 -37 -27 -35 -3 -38 -6 -41 -37 -2 -18 1 -38 5 -42 6 -6 79 13 179 45 442 142 864 245 1294 318 71 12 75 15 78 41 3 23 8 27 36 27 26 0 35 -5 39 -21 5 -17 11 -19 39 -15 72 13 434 46 618 57 234 14 646 7 880 -16 410 -40 778 -115 1144 -236 88 -29 154 -45 159 -40 5 5 7 19 5 32 -2 20 -10 24 -45 27 l-43 3 0 55 c0 61 -5 65 -105 86 -27 5 -58 14 -68 20 -52 27 -321 95 -517 132 -273 50 -399 65 -600 72 -91 3 -169 10 -174 15 -12 11 -550 9 -731 -2z"/>
 <path d="M13287 4393 c-4 -3 -7 -19 -7 -34 0 -15 -5 -31 -11 -35 -17 -10 -2 -19 149 -83 185 -79 459 -219 592 -302 39 -25 47 -26 56 -14 6 8 25 15 43 15 25 0 31 -4 31 -21 0 -12 -7 -27 -16 -33 -12 -10 2 -24 91 -84 121 -84 308 -228 412 -318 77 -68 210 -170 250 -194 14 -8 37 -25 50 -37 84 -75 410 -274 633 -388 464 -234 1062 -420 1533 -474 45 -6 145 -18 222 -28 202 -25 921 -25 1140 1 83 10 191 22 240 27 83 9 404 60 485 77 l35 8 0 74 c0 45 -4 74 -10 73 -5 0 -93 -15 -195 -32 -398 -66 -645 -90 -1015 -98 -570 -12 -1059 48 -1570 193 -169 49 -448 149 -578 208 -67 31 -89 36 -152 36 l-74 0 -3 33 -3 32 -82 3 c-81 3 -83 3 -83 27 0 15 6 25 14 25 38 0 19 22 -56 66 -221 126 -467 300 -708 499 -341 282 -764 565 -846 565 -23 0 -33 5 -37 20 -3 13 -44 38 -123 76 -66 31 -128 61 -138 67 -90 45 -246 74 -269 50z m1793 -1143 c0 -27 -3 -30 -30 -30 -27 0 -30 3 -30 30 0 27 3 30 30 30 27 0 30 -3 30 -30z"/>
 <path d="M8375 4189 c-402 -156 -870 -371 -1150 -529 -976 -548 -2147 -942 -3200 -1075 -319 -40 -483 -50 -840 -50 -343 1 -500 11 -775 51 -588 85 -1144 273 -1635 552 -190 108 -486 313 -626 434 -31 26 -61 48 -67 48 -16 0 -82 -81 -82 -101 0 -47 439 -364 735 -530 584 -327 1206 -515 1960 -591 199 -20 852 -17 1080 5 747 73 1479 247 2240 532 412 155 890 375 1246 576 358 201 871 432 1331 598 70 25 127 51 127 56 1 6 -28 11 -63 13 l-65 3 -3 37 c-2 23 -8 38 -18 39 -8 1 -96 -29 -195 -68z m-5295 -1754 c0 -21 -5 -25 -30 -25 -25 0 -30 4 -30 25 0 21 5 25 30 25 25 0 30 -4 30 -25z"/>
 <path d="M10900 3689 c-1251 -97 -2591 -511 -3759 -1161 -324 -181 -793 -394 -1201 -546 -562 -209 -1054 -342 -1663 -450 -41 -7 -51 -25 -17 -30 14 -2 20 -11 20 -28 0 -20 -5 -24 -30 -24 -27 0 -30 3 -30 29 0 17 -4 32 -9 36 -6 3 -79 -4 -163 -15 -303 -39 -513 -53 -833 -53 -317 -1 -472 8 -745 44 -869 113 -1657 449 -2313 987 l-78 64 -35 -39 c-53 -60 -54 -80 -8 -120 76 -66 312 -241 425 -315 580 -383 1263 -634 1979 -727 298 -39 410 -46 770 -45 472 0 818 33 1279 120 920 173 1962 549 2741 988 590 333 1409 665 2120 858 83 23 85 24 88 56 3 29 6 32 36 32 26 0 35 -5 39 -21 5 -17 11 -20 29 -15 159 42 542 119 776 156 643 99 1326 106 1902 19 408 -62 819 -176 1184 -330 123 -52 142 -58 152 -44 8 11 30 15 83 15 l71 0 0 -30 c0 -27 -3 -30 -29 -30 -58 0 -40 -19 76 -80 155 -82 290 -164 440 -266 67 -45 124 -80 127 -76 3 3 6 14 6 24 0 14 8 18 35 18 32 0 35 -3 35 -29 0 -21 -6 -30 -22 -35 l-23 -5 23 -23 c22 -22 24 -22 36 -5 10 13 28 17 84 17 39 0 74 4 77 10 12 20 -363 283 -615 431 -125 74 -426 220 -580 282 -356 143 -777 256 -1165 312 -195 28 -379 44 -390 34 -13 -13 -59 -11 -73 4 -16 15 -673 20 -852 6z"/>
 <path d="M21761 3584 c-380 -231 -1101 -543 -1681 -727 -193 -62 -513 -150 -644 -178 -43 -9 -60 -18 -64 -32 -4 -16 -13 -18 -68 -15 -37 2 -65 -1 -66 -7 -2 -5 7 -11 20 -13 20 -3 22 -9 22 -56 0 -29 2 -55 5 -58 18 -18 746 171 756 197 2 6 -25 11 -68 13 -70 3 -73 4 -73 27 0 24 2 25 74 25 74 0 75 0 78 -27 3 -25 6 -28 38 -25 43 3 304 91 535 180 373 143 794 335 818 374 7 10 24 18 40 18 46 0 437 209 437 233 0 16 -68 117 -78 116 -4 0 -40 -21 -81 -45z"/>
 <path d="M30298 3027 l-56 -63 67 -282 68 -282 -61 0 -61 0 -140 130 c-77 71 -145 129 -150 127 -6 -1 -31 -25 -58 -53 l-47 -51 379 -351 379 -350 53 54 54 55 -70 67 c-38 37 -115 109 -170 161 -55 51 -91 90 -80 87 11 -3 144 -13 296 -22 l277 -17 58 63 c33 35 59 68 59 74 0 7 -90 15 -278 22 -153 6 -279 13 -281 15 -4 4 -68 265 -92 379 -35 163 -70 294 -80 297 -5 2 -35 -25 -66 -60z"/>
 <path d="M24355 2503 c-142 -153 -298 -320 -347 -372 -48 -52 -88 -97 -88 -101 0 -13 131 -154 194 -208 33 -30 88 -68 121 -85 51 -27 71 -31 135 -32 91 0 149 26 215 96 72 77 90 120 90 219 0 77 -3 91 -34 150 -21 40 -62 93 -107 139 -41 40 -72 77 -69 81 3 5 1 11 -5 15 -5 3 -10 35 -10 71 l0 64 30 0 c28 0 30 -3 30 -34 0 -19 4 -37 9 -40 5 -3 53 42 107 100 l98 105 -55 55 -55 55 -259 -278z m74 -221 c-3 -32 3 -47 34 -84 20 -24 43 -61 52 -81 42 -101 -14 -222 -120 -257 -71 -23 -153 10 -239 98 l-49 50 127 137 c69 76 126 146 126 156 0 15 7 19 36 19 35 0 35 -1 33 -38z"/>
 <path d="M14574 2607 c-3 -8 -4 -43 -2 -78 l3 -64 37 -3 c33 -3 37 -6 40 -35 l3 -32 89 -3 c49 -2 93 1 97 5 6 7 -227 211 -253 221 -4 2 -10 -3 -14 -11z"/>
 <path d="M14466 2551 c-3 -5 1 -14 8 -20 16 -13 32 2 21 19 -8 12 -22 13 -29 1z"/>
 <path d="M21730 2479 c-152 -87 -488 -255 -688 -343 -886 -393 -1775 -632 -2642 -713 -229 -21 -789 -24 -990 -4 -527 50 -1001 160 -1428 332 -148 60 -408 184 -537 257 -57 33 -93 48 -99 42 -6 -6 -25 -10 -43 -10 -31 0 -33 2 -33 35 0 32 -5 38 -92 96 -51 34 -128 86 -170 117 l-77 55 -98 -2 c-54 -1 -102 -6 -107 -11 -4 -4 31 -39 79 -77 256 -201 602 -411 901 -548 l128 -58 98 2 98 2 0 -24 c0 -14 -7 -28 -17 -31 -10 -4 -13 -10 -7 -16 18 -18 373 -129 554 -174 311 -77 614 -124 938 -146 297 -20 758 -9 1022 24 l95 12 3 32 c3 28 7 32 33 32 24 0 29 -4 29 -24 0 -14 3 -27 8 -29 35 -19 687 106 1032 198 577 154 1207 393 1753 666 174 88 424 224 444 243 9 8 3 24 -25 65 -20 30 -41 56 -47 57 -5 1 -57 -25 -115 -57z"/>
 <path d="M29741 2449 c-50 -39 -53 -44 -48 -75 3 -19 27 -87 53 -152 56 -137 66 -208 39 -259 -16 -30 -105 -106 -138 -119 -9 -3 -58 57 -136 166 -67 93 -127 170 -132 170 -13 0 -91 -53 -107 -73 -10 -12 32 -77 244 -373 142 -198 275 -383 296 -411 l39 -53 58 29 c146 74 293 198 337 284 54 105 39 206 -44 298 -59 66 -127 99 -203 99 l-56 0 5 73 c4 70 2 78 -57 229 -33 86 -61 163 -61 170 0 14 -19 38 -29 38 -4 0 -30 -19 -60 -41z m300 -622 c40 -26 79 -98 79 -145 0 -68 -69 -154 -167 -209 l-41 -23 -28 37 c-16 21 -61 85 -101 142 l-72 105 52 38 c84 60 126 78 188 78 41 0 65 -6 90 -23z"/>
 <path d="M25200 2149 c-227 -44 -439 -329 -440 -591 0 -75 25 -165 64 -233 25 -43 29 -45 71 -45 40 0 45 -2 45 -23 0 -13 -5 -28 -11 -34 -22 -22 98 -92 204 -119 207 -54 432 76 552 320 55 110 79 216 71 304 -8 81 -23 119 -38 104 -7 -7 -25 -12 -40 -12 -23 0 -28 4 -28 25 0 20 5 25 24 25 39 0 40 17 6 71 -42 65 -110 124 -190 164 -102 51 -187 64 -290 44z m246 -172 c160 -81 196 -270 91 -480 -48 -96 -136 -190 -212 -227 -40 -19 -66 -24 -130 -25 -70 0 -86 4 -134 30 -66 36 -107 85 -126 149 -63 210 90 504 296 572 63 20 153 12 215 -19z"/>
 <path d="M29158 2039 c-11 -6 -18 -22 -18 -39 0 -27 -3 -29 -42 -32 -50 -3 -47 14 -34 -193 l8 -120 -155 -66 -155 -66 -108 123 c-59 68 -112 124 -116 124 -5 0 -38 -13 -74 -30 -61 -27 -65 -31 -53 -47 45 -58 363 -405 375 -410 8 -3 14 -11 14 -17 0 -18 43 -56 63 -56 11 0 17 -8 17 -21 0 -18 184 -236 234 -278 14 -12 27 -10 84 14 37 15 72 33 79 39 8 8 2 135 -28 521 -21 281 -40 521 -41 535 -3 27 -24 35 -50 19z m-64 -561 c3 -24 10 -108 16 -188 6 -80 14 -156 16 -170 l5 -25 -21 25 c-11 14 -73 84 -136 155 -63 72 -113 135 -112 140 1 8 198 101 220 104 4 1 9 -18 12 -41z"/>
 <path d="M26054 1787 c-3 -8 -4 -39 -2 -68 l3 -54 60 -7 c154 -17 235 -79 235 -180 0 -92 -62 -151 -170 -163 -248 -27 -327 -60 -385 -159 -40 -69 -48 -134 -25 -208 45 -144 178 -232 372 -245 102 -7 119 1 117 56 -2 81 -4 82 -104 84 -74 2 -100 7 -147 29 -69 32 -93 66 -93 129 0 96 54 132 233 154 151 19 220 44 273 98 59 61 81 110 87 193 4 61 1 80 -20 125 -56 122 -188 203 -365 224 -51 6 -64 4 -69 -8z"/>
 <path d="M28306 1690 c-27 -5 -53 -13 -58 -18 -15 -15 1 -162 18 -169 17 -6 19 -49 3 -59 -8 -5 -10 -32 -4 -93 4 -47 8 -111 10 -141 2 -30 6 -80 9 -110 3 -30 8 -84 11 -120 3 -36 8 -76 11 -90 3 -14 -32 47 -76 135 -108 212 -104 205 -145 205 -30 0 -35 3 -35 24 0 16 7 26 21 29 l22 6 -21 33 c-26 40 -36 42 -40 6 -3 -25 -7 -28 -41 -28 -21 0 -40 -3 -44 -6 -7 -8 48 -120 210 -421 104 -194 128 -233 146 -233 37 0 152 21 160 29 8 8 -58 931 -71 991 -8 39 -15 42 -86 30z"/>
 <path d="M27852 1621 c-23 -4 -46 -12 -51 -17 -5 -5 -26 -94 -45 -199 -20 -104 -40 -213 -46 -241 -6 -28 -13 -71 -16 -95 -2 -24 -7 -51 -10 -59 -3 -8 -14 -62 -24 -120 -10 -58 -19 -95 -19 -82 -2 45 -92 477 -101 486 -6 6 -10 29 -10 52 0 58 -29 196 -45 213 -10 10 -28 11 -74 6 -34 -4 -63 -10 -66 -15 -2 -4 36 -198 86 -431 49 -233 94 -448 100 -478 20 -105 19 -104 102 -96 115 12 109 6 137 146 18 98 23 150 21 247 l-3 122 27 0 c14 0 28 6 30 13 15 40 28 166 26 254 l-3 102 44 3 c43 3 43 3 49 48 6 38 2 53 -23 98 -16 28 -33 51 -36 51 -4 -1 -26 -5 -50 -8z m-2 -366 c0 -21 -5 -25 -30 -25 -25 0 -30 4 -30 25 0 21 5 25 30 25 25 0 30 -4 30 -25z"/>
 <path d="M26876 1601 c-9 -14 -25 -153 -19 -163 2 -5 15 -8 29 -8 19 0 24 -5 24 -25 0 -20 -5 -25 -25 -25 -32 0 -42 -21 -46 -100 l-4 -65 38 -3 c33 -3 37 -6 37 -32 0 -27 -3 -29 -42 -32 -50 -4 -44 17 -73 -258 -10 -91 -19 -166 -20 -168 -2 -2 -67 4 -146 13 -94 10 -146 12 -152 6 -15 -15 -21 -117 -9 -125 15 -9 742 -87 752 -81 13 8 24 115 14 125 -5 5 -72 17 -149 26 -77 8 -142 17 -144 20 -2 2 8 119 23 261 39 379 46 440 58 531 6 47 7 87 2 92 -15 14 -141 23 -148 11z"/>
 <path d="M25505 330 c-3 -5 0 -12 7 -15 7 -2 39 -13 71 -24 62 -21 73 -16 65 26 -3 15 -15 19 -70 21 -39 2 -69 -1 -73 -8z"/>
 </g>

</svg>
